<?xml version="1.0" encoding="UTF-8" standalone="no"?>
<svg
   xmlns:dc="http://purl.org/dc/elements/1.1/"
   xmlns:cc="http://creativecommons.org/ns#"
   xmlns:rdf="http://www.w3.org/1999/02/22-rdf-syntax-ns#"
   xmlns:svg="http://www.w3.org/2000/svg"
   xmlns="http://www.w3.org/2000/svg"
   xmlns:sodipodi="http://sodipodi.sourceforge.net/DTD/sodipodi-0.dtd"
   xmlns:inkscape="http://www.inkscape.org/namespaces/inkscape"
   height="16"
   viewBox="0 0 16 16"
   width="16"
   version="1.1"
   id="svg4"
   sodipodi:docname="icon.svg"
   inkscape:version="1.0.1 (3bc2e813f5, 2020-09-07)">
  <metadata
     id="metadata10">
    <rdf:RDF>
      <cc:Work
         rdf:about="">
        <dc:format>image/svg+xml</dc:format>
        <dc:type
           rdf:resource="http://purl.org/dc/dcmitype/StillImage" />
        <dc:title></dc:title>
      </cc:Work>
    </rdf:RDF>
  </metadata>
  <defs
     id="defs8" />
  <sodipodi:namedview
     pagecolor="#ffffff"
     bordercolor="#666666"
     borderopacity="1"
     objecttolerance="10"
     gridtolerance="10"
     guidetolerance="10"
     inkscape:pageopacity="0"
     inkscape:pageshadow="2"
     inkscape:window-width="2560"
     inkscape:window-height="1376"
     id="namedview6"
     showgrid="false"
     inkscape:zoom="31.5"
     inkscape:cx="14.029382"
     inkscape:cy="6.5647707"
     inkscape:window-x="0"
     inkscape:window-y="237"
     inkscape:window-maximized="1"
     inkscape:current-layer="layer1" />
  <g
     inkscape:groupmode="layer"
     id="layer1"
     inkscape:label="Layer 1"
     style="display:inline">
    <path
       id="rect836"
       style="fill:#a5b7f4;fill-opacity:0.988235"
       d="M 1 1 L 1 3 L 1 15 L 3 15 L 15 15 L 15 13 L 15 3 L 15 1 L 13 1 L 12 1 L 10 1 L 10 3 L 10 6 L 10 10 L 9 10 L 4 10 L 4 12 L 9 12 L 12 12 L 12 10 L 12 6 L 12 3 L 13 3 L 13 13 L 3 13 L 3 3 L 6 3 L 6 1 L 3 1 L 1 1 z M 7 1 L 7 4 L 4 4 L 4 6 L 4 9 L 6 9 L 9 9 L 9 7 L 6 7 L 6 6 L 9 6 L 9 4 L 9 1 L 7 1 z " />
  </g>
</svg>
